<?xml version="1.0" encoding="UTF-8" standalone="no"?>
<!DOCTYPE svg PUBLIC "-//W3C//DTD SVG 1.1//EN" "http://www.w3.org/Graphics/SVG/1.1/DTD/svg11.dtd">
<svg xmlns="http://www.w3.org/2000/svg" version="1.1" viewBox="0.00 0.00 3686.00 853.00">
<path fill="#19235b" d="
  M 497.82 758.59
  Q 497.10 758.69 496.10 759.60
  C 491.83 763.45 488.39 768.48 484.40 771.90
  C 480.00 775.68 475.58 781.08 470.94 784.34
  C 468.06 786.36 465.50 789.11 461.63 792.14
  Q 423.44 822.07 376.04 835.28
  C 366.16 838.03 358.48 840.01 348.63 841.43
  Q 331.65 843.88 329.32 844.13
  Q 301.85 847.08 271.22 844.43
  Q 266.10 843.98 260.31 843.02
  C 252.06 841.65 245.12 841.09 237.20 839.15
  Q 225.60 836.32 225.11 836.17
  Q 210.10 831.61 208.98 831.29
  Q 200.28 828.78 193.04 825.93
  Q 171.53 817.45 168.87 816.11
  Q 150.03 806.59 145.41 803.84
  Q 142.80 802.28 130.16 794.07
  C 125.36 790.94 121.21 787.19 117.14 784.21
  Q 112.56 780.87 109.41 777.67
  C 106.14 774.34 102.40 771.63 99.34 768.19
  C 94.66 762.94 90.68 759.16 86.30 753.64
  Q 72.48 736.23 66.39 726.36
  Q 60.18 716.29 58.27 713.12
  Q 53.58 705.36 51.27 700.48
  C 48.58 694.81 45.27 689.35 42.62 683.25
  Q 32.63 660.17 30.90 654.86
  C 26.88 642.48 23.02 630.76 20.07 618.91
  C 17.71 609.45 15.79 597.70 14.05 586.26
  Q 6.70 537.95 14.16 487.46
  Q 15.51 478.35 18.14 464.37
  C 20.81 450.23 25.78 435.50 30.78 420.01
  Q 32.16 415.76 39.76 397.82
  Q 44.21 387.33 50.06 376.20
  Q 58.65 359.86 66.06 348.54
  Q 74.93 334.99 87.88 320.21
  Q 91.64 315.93 94.59 313.25
  C 97.64 310.48 100.05 307.48 103.78 304.23
  Q 113.68 295.57 116.85 293.09
  Q 144.90 271.21 175.29 258.36
  Q 195.42 249.85 205.92 246.97
  Q 224.36 241.90 237.55 239.33
  C 261.08 234.75 284.26 233.43 310.26 234.73
  Q 335.34 235.98 359.12 241.96
  Q 374.85 245.92 375.48 246.08
  C 383.76 248.15 395.05 252.94 403.29 256.20
  Q 410.15 258.91 414.50 261.21
  Q 431.24 270.10 432.86 271.14
  Q 438.32 274.64 446.98 280.46
  C 452.39 284.09 456.51 288.03 461.03 291.25
  C 465.42 294.38 469.21 298.84 473.61 302.36
  Q 475.52 303.89 478.34 307.05
  Q 482.76 312.01 488.84 317.77
  A 0.68 0.67 60.9 0 0 489.42 317.94
  Q 490.68 317.73 490.68 316.31
  Q 491.00 149.71 490.70 15.50
  Q 490.69 13.57 491.40 11.52
  A 1.65 1.64 81.8 0 1 491.98 10.74
  Q 493.42 9.69 494.76 9.68
  Q 512.58 9.59 632.50 9.64
  Q 633.71 9.64 635.68 10.76
  C 638.00 12.06 637.97 16.60 637.97 19.00
  Q 637.95 669.57 637.94 821.98
  C 637.94 827.18 638.60 830.56 632.53 830.58
  Q 578.28 830.78 505.01 830.59
  C 503.34 830.58 500.81 830.25 500.10 828.18
  Q 498.96 824.86 498.96 823.75
  Q 499.03 766.92 499.00 759.60
  A 1.03 1.03 0.0 0 0 497.82 758.59
  Z
  M 325.3159 360.3403
  A 181.01 167.88 -89.9 0 0 157.1203 541.0570
  A 181.01 167.88 -89.9 0 0 324.6841 722.3597
  A 181.01 167.88 -89.9 0 0 492.8797 541.6430
  A 181.01 167.88 -89.9 0 0 325.3159 360.3403
  Z"
/>
<path fill="#2fa2dc" d="
  M 3194.32 308.64
  C 3194.32 311.64 3197.68 311.83 3199.52 309.99
  Q 3211.18 298.38 3226.83 286.10
  Q 3232.98 281.27 3236.66 278.98
  C 3241.03 276.24 3244.94 273.12 3250.18 270.13
  Q 3264.85 261.77 3266.81 260.81
  Q 3278.33 255.19 3294.95 248.75
  C 3300.86 246.46 3308.72 244.37 3313.00 243.23
  Q 3341.59 235.59 3363.51 234.47
  C 3391.93 233.01 3418.77 233.87 3445.81 239.44
  Q 3452.47 240.81 3465.58 244.04
  Q 3476.67 246.77 3485.02 249.77
  Q 3502.57 256.06 3513.82 261.25
  Q 3540.53 273.56 3565.45 292.41
  Q 3569.55 295.51 3571.65 297.34
  C 3577.09 302.08 3581.33 305.13 3585.69 309.72
  C 3589.27 313.50 3592.85 316.22 3596.41 320.41
  C 3600.02 324.64 3604.32 328.90 3608.43 334.05
  Q 3620.22 348.84 3629.62 363.86
  Q 3632.80 368.94 3640.50 383.20
  Q 3645.05 391.64 3652.99 410.70
  Q 3656.18 418.38 3663.09 441.19
  Q 3665.15 448.02 3667.26 459.03
  Q 3669.37 470.09 3670.60 477.06
  Q 3680.66 534.30 3672.28 592.04
  C 3670.75 602.57 3668.69 611.84 3666.52 622.81
  C 3663.91 636.08 3659.77 647.77 3655.76 660.29
  Q 3652.56 670.32 3650.29 675.62
  Q 3643.56 691.38 3640.76 697.29
  Q 3639.64 699.66 3632.70 712.11
  C 3628.47 719.69 3625.67 723.52 3620.35 731.46
  Q 3617.98 735.01 3613.83 740.31
  C 3602.06 755.36 3588.78 769.01 3574.02 781.02
  Q 3570.84 783.60 3567.21 786.20
  C 3564.31 788.27 3561.58 790.68 3558.07 793.05
  Q 3542.48 803.58 3524.52 812.80
  Q 3516.65 816.84 3509.34 819.75
  C 3503.65 822.02 3495.29 825.82 3488.65 828.02
  Q 3467.84 834.91 3449.29 839.24
  C 3441.37 841.10 3433.35 841.94 3424.00 843.21
  Q 3395.11 847.15 3365.83 844.50
  C 3348.36 842.91 3329.72 840.04 3312.22 834.49
  C 3303.46 831.71 3296.69 830.04 3289.73 827.19
  Q 3268.40 818.47 3264.38 816.36
  Q 3249.28 808.44 3242.26 803.96
  C 3223.67 792.11 3207.42 777.16 3193.84 759.87
  Q 3193.01 758.81 3191.73 758.64
  Q 3187.80 758.12 3187.81 762.86
  Q 3187.84 782.98 3187.75 828.07
  Q 3187.74 832.17 3183.54 832.05
  Q 3181.81 832.01 3054.03 832.02
  C 3047.47 832.02 3048.10 828.04 3048.11 822.49
  Q 3048.17 319.13 3048.09 13.03
  C 3048.09 9.03 3050.89 9.54 3054.39 9.49
  Q 3056.50 9.45 3189.00 9.47
  C 3193.51 9.47 3194.32 13.60 3194.32 17.00
  Q 3194.29 171.28 3194.32 308.64
  Z
  M 3361.8192 359.7199
  A 180.41 169.39 -89.4 0 0 3190.5493 538.3462
  A 180.41 169.39 -89.4 0 0 3358.0408 720.5201
  A 180.41 169.39 -89.4 0 0 3529.3107 541.8938
  A 180.41 169.39 -89.4 0 0 3361.8192 359.7199
  Z"
/>
<path fill="#19235b" d="
  M 1339.06 585.37
  Q 1337.10 585.48 1331.50 585.48
  Q 1027.49 585.49 888.50 585.44
  Q 885.51 585.44 885.97 588.25
  C 891.41 621.67 906.37 654.01 930.16 677.61
  Q 946.61 693.93 966.32 704.14
  C 974.90 708.59 984.10 712.64 994.11 715.53
  Q 1010.47 720.25 1022.99 722.00
  C 1052.82 726.19 1085.30 725.09 1114.65 716.76
  C 1120.53 715.09 1125.62 714.11 1131.16 711.91
  Q 1148.13 705.17 1154.45 701.93
  Q 1187.36 685.06 1213.60 658.61
  Q 1217.88 654.30 1222.16 658.59
  Q 1276.65 713.17 1295.15 731.70
  Q 1297.10 733.64 1297.93 735.99
  C 1299.00 739.01 1296.28 742.97 1294.24 745.24
  Q 1290.44 749.48 1282.64 757.12
  Q 1259.17 780.13 1235.19 794.92
  Q 1214.31 807.80 1195.29 816.01
  C 1182.66 821.48 1166.63 827.63 1151.41 831.51
  C 1135.76 835.50 1121.51 839.06 1107.36 840.74
  C 1079.98 843.99 1052.57 845.14 1026.03 842.75
  C 1014.34 841.70 1007.65 841.32 999.07 839.89
  Q 981.64 837.00 976.89 835.84
  Q 962.02 832.23 959.58 831.64
  C 943.97 827.89 928.57 822.49 915.61 817.63
  Q 902.82 812.82 885.50 804.20
  Q 868.50 795.74 848.87 780.96
  Q 824.29 762.46 802.90 734.72
  Q 757.39 675.71 743.59 601.73
  Q 732.71 543.39 743.22 483.59
  Q 751.62 435.80 772.29 394.56
  Q 797.78 343.68 839.54 307.03
  Q 863.14 286.32 891.06 271.32
  Q 903.38 264.71 918.12 258.41
  Q 928.41 254.01 953.46 246.19
  Q 958.60 244.59 978.21 240.68
  C 1017.71 232.82 1058.30 232.38 1098.25 238.78
  Q 1118.60 242.04 1134.88 246.39
  Q 1149.22 250.22 1169.95 258.70
  Q 1199.36 270.74 1227.91 291.96
  C 1266.90 320.94 1297.42 361.78 1316.14 406.83
  C 1322.37 421.82 1327.80 437.65 1331.61 453.05
  Q 1347.53 517.34 1340.02 584.46
  A 1.03 1.03 0.0 0 1 1339.06 585.37
  Z
  M 1043.01 492.52
  Q 1154.78 492.35 1189.21 492.60
  Q 1192.93 492.63 1193.93 491.98
  C 1197.42 489.73 1196.67 485.66 1195.96 481.26
  Q 1190.62 448.50 1173.82 420.22
  Q 1158.31 394.11 1131.87 376.42
  Q 1125.65 372.27 1116.34 367.78
  Q 1106.64 363.10 1099.91 360.96
  Q 1072.11 352.15 1042.80 352.19
  Q 1013.49 352.24 985.71 361.14
  Q 978.99 363.29 969.30 368.00
  Q 960.01 372.52 953.80 376.69
  Q 927.41 394.46 911.98 420.62
  Q 895.27 448.95 890.03 481.73
  C 889.33 486.13 888.59 490.20 892.09 492.44
  Q 893.09 493.09 896.81 493.05
  Q 931.24 492.69 1043.01 492.52
  Z"
/>
<path fill="#2992d1" d="
  M 2945.86 586.13
  Q 2943.90 586.24 2938.31 586.23
  Q 2634.66 585.95 2495.83 585.76
  Q 2492.85 585.76 2493.31 588.57
  C 2498.71 621.95 2513.62 654.27 2537.36 677.86
  Q 2553.77 694.18 2573.45 704.40
  C 2582.01 708.85 2591.20 712.90 2601.19 715.80
  Q 2617.53 720.53 2630.03 722.29
  C 2659.82 726.51 2692.27 725.44 2721.59 717.15
  C 2727.46 715.48 2732.55 714.51 2738.08 712.32
  Q 2755.04 705.60 2761.36 702.37
  Q 2794.24 685.55 2820.48 659.16
  Q 2824.76 654.86 2829.03 659.15
  Q 2883.40 713.72 2901.86 732.24
  Q 2903.80 734.18 2904.63 736.53
  C 2905.70 739.55 2902.98 743.50 2900.94 745.77
  Q 2897.14 750.00 2889.34 757.62
  Q 2865.87 780.58 2841.91 795.33
  Q 2821.04 808.17 2802.04 816.36
  C 2789.42 821.81 2773.40 827.93 2758.19 831.80
  C 2742.56 835.77 2728.32 839.31 2714.19 840.97
  C 2686.84 844.19 2659.46 845.31 2632.95 842.90
  C 2621.28 841.84 2614.60 841.45 2606.03 840.02
  Q 2588.62 837.11 2583.88 835.95
  Q 2569.03 832.33 2566.59 831.74
  C 2551.00 827.98 2535.63 822.57 2522.69 817.70
  Q 2509.92 812.89 2492.63 804.26
  Q 2475.66 795.79 2456.06 781.01
  Q 2431.53 762.51 2410.19 734.78
  Q 2364.79 675.80 2351.08 601.89
  Q 2340.27 543.61 2350.83 483.89
  Q 2359.26 436.17 2379.95 395.00
  Q 2405.46 344.20 2447.20 307.64
  Q 2470.79 286.98 2498.70 272.02
  Q 2511.01 265.43 2525.74 259.15
  Q 2536.02 254.77 2561.05 246.98
  Q 2566.18 245.39 2585.77 241.50
  C 2625.23 233.69 2665.77 233.29 2705.67 239.72
  Q 2725.99 243.00 2742.25 247.36
  Q 2756.57 251.20 2777.27 259.69
  Q 2806.63 271.74 2835.12 292.96
  C 2874.04 321.95 2904.48 362.77 2923.14 407.78
  C 2929.35 422.76 2934.75 438.58 2938.54 453.96
  Q 2954.38 518.19 2946.82 585.22
  A 1.03 1.02 -88.3 0 1 2945.86 586.13
  Z
  M 2648.76 493.66
  Q 2760.41 493.62 2794.80 493.90
  Q 2798.52 493.94 2799.51 493.29
  C 2803.00 491.04 2802.26 486.98 2801.55 482.58
  Q 2796.26 449.85 2779.51 421.58
  Q 2764.04 395.49 2737.65 377.79
  Q 2731.44 373.63 2722.15 369.14
  Q 2712.47 364.45 2705.74 362.31
  Q 2677.98 353.47 2648.71 353.49
  Q 2619.43 353.50 2591.67 362.35
  Q 2584.95 364.50 2575.27 369.20
  Q 2565.98 373.70 2559.78 377.86
  Q 2533.40 395.58 2517.96 421.69
  Q 2501.23 449.97 2495.96 482.70
  C 2495.26 487.10 2494.52 491.17 2498.01 493.41
  Q 2499.01 494.06 2502.72 494.02
  Q 2537.12 493.71 2648.76 493.66
  Z"
/>
<path fill="#2992d1" d="
  M 2056.19 664.18
  Q 2057.72 663.12 2058.77 660.27
  Q 2063.74 646.79 2065.12 642.34
  C 2069.22 629.16 2071.73 623.24 2076.14 609.96
  Q 2084.42 584.99 2088.45 574.24
  C 2089.37 571.79 2089.89 568.76 2090.70 566.47
  Q 2098.38 544.89 2099.69 540.73
  Q 2105.15 523.41 2111.26 506.13
  Q 2112.28 503.23 2113.44 499.81
  Q 2118.36 485.27 2123.05 470.73
  Q 2128.34 454.31 2133.80 438.92
  Q 2134.95 435.68 2136.04 432.39
  Q 2143.03 411.18 2145.83 403.35
  C 2146.81 400.58 2147.56 397.06 2148.62 394.01
  Q 2155.78 373.35 2157.11 369.17
  Q 2165.13 343.89 2168.44 335.30
  C 2169.29 333.08 2169.88 329.65 2170.71 327.20
  C 2175.17 314.04 2178.14 306.02 2181.77 294.10
  Q 2184.65 284.64 2190.41 268.28
  C 2192.77 261.58 2194.43 252.98 2197.46 246.96
  C 2199.53 242.87 2204.48 242.02 2209.26 242.02
  Q 2271.28 242.11 2332.19 242.03
  Q 2333.73 242.03 2336.50 243.36
  A 1.20 1.19 -86.6 0 1 2337.13 244.08
  Q 2337.74 245.92 2337.32 247.02
  Q 2334.51 254.51 2332.26 261.43
  C 2328.42 273.26 2323.12 286.69 2320.61 294.58
  Q 2316.27 308.25 2309.19 326.98
  C 2308.55 328.67 2308.20 331.28 2307.46 333.25
  Q 2300.95 350.56 2298.00 359.50
  Q 2293.55 372.99 2291.28 379.00
  C 2286.46 391.76 2283.62 401.61 2278.54 415.21
  Q 2276.42 420.87 2272.83 432.00
  C 2269.81 441.37 2265.27 452.06 2262.49 461.28
  C 2259.01 472.87 2252.89 487.77 2248.71 501.11
  C 2246.34 508.63 2241.90 519.43 2239.02 528.43
  Q 2235.63 539.02 2229.41 555.53
  C 2228.36 558.33 2227.69 561.57 2226.72 564.24
  Q 2217.91 588.55 2216.80 591.79
  C 2215.89 594.43 2215.20 597.54 2214.18 600.23
  Q 2209.27 613.16 2206.10 622.63
  C 2200.67 638.86 2195.52 651.96 2191.21 665.98
  Q 2191.15 666.17 2186.73 678.16
  C 2182.71 689.08 2179.61 699.51 2175.78 709.67
  Q 2172.05 719.56 2168.73 730.08
  C 2166.01 738.67 2162.34 747.44 2159.14 757.25
  Q 2154.67 770.93 2148.27 787.80
  C 2147.52 789.78 2146.93 792.88 2146.05 795.28
  Q 2138.19 816.90 2134.63 827.09
  A 4.49 4.46 -89.4 0 1 2131.83 829.85
  Q 2129.60 830.60 2126.00 830.59
  Q 2097.17 830.52 1986.30 830.56
  Q 1980.59 830.56 1979.71 830.26
  C 1974.90 828.60 1974.67 821.66 1973.23 817.41
  Q 1967.27 799.88 1963.42 787.29
  Q 1958.85 772.33 1956.21 764.90
  Q 1952.89 755.58 1951.31 750.00
  C 1948.03 738.41 1942.47 724.44 1939.46 714.22
  C 1936.98 705.76 1933.35 697.42 1930.79 688.81
  Q 1929.94 685.96 1922.85 665.95
  C 1916.98 649.34 1913.28 637.77 1907.06 621.61
  C 1906.19 619.36 1905.65 616.73 1904.82 614.43
  Q 1902.21 607.21 1895.27 588.90
  C 1893.97 585.47 1893.08 581.72 1891.93 578.84
  Q 1885.66 563.17 1880.61 548.63
  C 1877.74 540.37 1871.86 527.21 1868.52 515.74
  C 1867.42 511.98 1866.83 506.68 1866.83 502.38
  Q 1866.75 254.09 1866.82 248.57
  C 1866.89 242.98 1871.11 243.02 1875.75 242.97
  Q 1882.17 242.89 1901.90 243.37
  C 1909.99 243.56 1913.09 247.59 1915.30 254.91
  Q 1917.17 261.10 1918.05 263.77
  Q 1924.31 282.69 1927.44 292.44
  Q 1929.03 297.44 1929.57 299.02
  Q 1937.14 321.54 1939.09 327.84
  Q 1944.74 346.01 1949.43 358.99
  C 1950.38 361.63 1951.29 365.59 1951.97 367.59
  Q 1959.16 388.63 1961.36 395.59
  C 1966.18 410.89 1970.99 424.42 1975.34 438.01
  Q 1976.49 441.60 1985.26 467.87
  Q 1987.09 473.35 1987.57 474.77
  Q 1996.50 501.30 1998.50 507.79
  Q 1999.82 512.10 2007.83 534.92
  C 2008.75 537.55 2009.47 540.90 2010.45 543.73
  C 2013.86 553.49 2018.12 565.55 2022.01 577.75
  Q 2025.17 587.66 2030.36 601.88
  C 2031.25 604.34 2031.79 607.34 2032.53 609.47
  C 2038.43 626.31 2040.78 632.57 2044.89 645.68
  Q 2046.30 650.17 2049.55 659.04
  C 2050.70 662.20 2051.68 665.73 2055.19 664.66
  A 4.16 3.99 -69.4 0 0 2056.19 664.18
  Z"
/>
<path fill="#193269" d="
  M 1820.96 244.72
  Q 1821.38 247.58 1821.38 253.00
  Q 1821.30 463.75 1821.36 502.50
  C 1821.38 512.12 1816.14 523.28 1813.77 531.22
  C 1810.28 542.90 1805.97 553.91 1802.43 565.23
  Q 1798.50 577.75 1791.37 597.64
  C 1790.53 599.97 1789.81 603.38 1788.86 606.14
  C 1785.13 616.96 1781.24 627.88 1776.85 641.61
  Q 1773.90 650.84 1769.30 663.32
  C 1768.14 666.48 1767.31 670.69 1766.08 674.13
  Q 1758.73 694.65 1756.30 702.57
  Q 1753.61 711.30 1750.52 719.94
  C 1745.39 734.26 1742.88 743.44 1737.88 757.39
  Q 1734.42 767.00 1731.31 777.56
  Q 1730.89 778.98 1726.27 791.86
  C 1722.83 801.47 1719.76 812.43 1716.55 821.15
  Q 1714.43 826.92 1713.80 827.86
  C 1711.10 831.86 1706.24 832.77 1701.50 832.78
  Q 1668.31 832.89 1567.00 832.80
  C 1562.57 832.80 1560.63 830.45 1559.37 826.10
  Q 1558.25 822.27 1554.02 810.84
  C 1549.86 799.61 1546.90 789.54 1542.66 778.13
  C 1538.18 766.08 1535.16 755.75 1530.44 743.08
  C 1526.16 731.60 1524.02 723.66 1519.39 711.40
  Q 1517.88 707.37 1511.83 689.09
  Q 1511.68 688.62 1506.50 674.31
  Q 1504.98 670.12 1501.44 659.46
  Q 1497.71 648.25 1493.11 636.08
  C 1491.46 631.69 1490.70 627.91 1488.99 623.32
  Q 1483.83 609.55 1480.15 598.33
  C 1476.37 586.81 1472.32 576.91 1469.44 567.75
  C 1465.66 555.73 1460.90 543.71 1457.21 532.59
  Q 1451.56 515.51 1450.16 512.06
  Q 1448.35 507.57 1444.58 495.96
  C 1440.59 483.67 1436.29 472.97 1431.86 459.16
  C 1429.29 451.15 1425.00 440.65 1422.14 431.65
  Q 1418.80 421.14 1412.83 405.19
  C 1411.34 401.20 1410.75 397.81 1409.25 393.85
  Q 1403.90 379.71 1399.75 367.17
  C 1395.67 354.83 1389.46 339.35 1387.26 331.15
  Q 1386.81 329.48 1385.68 326.33
  Q 1379.08 308.01 1376.56 300.95
  C 1375.69 298.53 1375.12 295.93 1374.26 293.54
  Q 1365.35 268.86 1360.27 253.27
  Q 1359.32 250.37 1359.05 248.47
  C 1358.58 245.14 1362.35 243.95 1365.00 243.94
  Q 1455.22 243.68 1493.99 243.99
  Q 1499.28 244.04 1500.70 249.10
  Q 1503.35 258.62 1508.50 272.98
  Q 1511.64 281.72 1515.90 295.39
  C 1518.82 304.73 1523.05 315.45 1525.83 325.23
  Q 1526.95 329.16 1531.88 343.11
  Q 1535.24 352.64 1537.74 361.04
  Q 1539.21 365.99 1547.22 389.07
  C 1548.38 392.39 1549.30 396.60 1550.37 399.64
  Q 1556.46 416.89 1559.52 426.84
  C 1563.52 439.86 1568.00 451.16 1571.46 463.24
  C 1574.51 473.87 1578.79 484.77 1581.86 494.81
  C 1586.46 509.82 1590.56 521.03 1595.01 535.54
  Q 1598.19 545.89 1604.93 565.28
  C 1605.89 568.04 1606.60 571.82 1607.59 574.72
  Q 1615.87 599.08 1616.83 602.39
  Q 1620.23 614.19 1624.72 626.98
  Q 1625.98 630.54 1630.31 644.80
  Q 1633.38 654.93 1636.24 662.49
  Q 1637.27 665.20 1639.66 664.56
  A 1.71 1.69 4.5 0 0 1640.76 663.63
  Q 1647.32 649.54 1651.35 638.26
  C 1655.08 627.83 1659.47 616.96 1661.86 609.41
  Q 1665.17 598.92 1673.15 576.68
  Q 1673.23 576.45 1675.91 568.06
  Q 1679.54 556.70 1685.62 539.92
  C 1686.41 537.76 1686.90 535.13 1687.66 532.92
  C 1692.57 518.76 1695.54 510.79 1699.36 498.46
  Q 1701.80 490.56 1708.17 472.64
  C 1709.08 470.09 1709.71 466.89 1710.58 464.31
  C 1714.91 451.48 1718.63 441.48 1722.01 429.97
  Q 1723.41 425.18 1727.60 413.14
  Q 1730.70 404.26 1734.47 391.71
  C 1737.08 383.04 1741.25 372.21 1743.80 363.17
  C 1747.05 351.62 1751.96 338.58 1755.76 325.78
  Q 1759.32 313.81 1765.73 294.96
  C 1766.89 291.55 1768.16 286.03 1769.01 283.50
  Q 1774.53 267.19 1779.47 250.22
  C 1781.09 244.65 1786.74 242.61 1792.00 242.59
  Q 1804.97 242.52 1818.61 242.68
  A 2.40 2.40 0.0 0 1 1820.96 244.72
  Z"
/>
</svg>
