<?xml version="1.0" encoding="UTF-8" standalone="no"?>
<!DOCTYPE svg PUBLIC "-//W3C//DTD SVG 1.1//EN" "http://www.w3.org/Graphics/SVG/1.1/DTD/svg11.dtd">
<svg xmlns="http://www.w3.org/2000/svg" version="1.1" viewBox="0.00 0.00 511.00 311.00">
<path fill="#2992d1" d="
  M 363.53 221.08
  Q 364.83 220.09 365.61 217.89
  C 372.02 199.84 378.29 180.92 384.81 161.64
  Q 396.65 126.62 420.28 55.17
  Q 430.80 23.38 430.84 23.28
  Q 432.48 19.42 436.34 6.39
  Q 436.82 4.77 437.96 3.47
  A 1.88 1.80 10.3 0 1 438.78 2.93
  Q 441.87 1.95 443.50 1.95
  Q 493.31 1.87 505.75 1.97
  Q 507.59 1.99 508.86 2.64
  A 1.69 1.68 24.0 0 1 509.67 4.73
  Q 506.34 13.61 502.41 25.36
  Q 495.95 44.65 489.19 63.81
  Q 476.54 99.66 471.32 114.28
  C 469.25 120.06 467.45 125.98 464.98 132.97
  Q 444.43 191.01 414.94 275.97
  Q 407.90 296.25 404.93 304.40
  C 403.70 307.79 401.05 307.29 398.25 307.29
  Q 341.63 307.32 327.75 307.31
  Q 326.10 307.30 324.74 307.17
  A 3.07 3.04 -5.5 0 1 322.13 305.03
  C 312.02 272.40 299.65 235.67 286.48 198.65
  Q 283.04 188.99 282.10 186.65
  C 279.98 181.41 278.62 176.20 276.43 170.59
  Q 268.76 150.91 266.60 144.15
  Q 265.53 140.80 265.53 136.25
  Q 265.55 30.90 265.49 8.50
  Q 265.48 5.18 265.84 4.21
  A 2.28 2.20 80.3 0 1 266.41 3.37
  Q 267.28 2.60 269.75 2.55
  Q 275.63 2.43 281.50 2.65
  C 285.71 2.82 288.68 3.10 290.12 7.14
  Q 292.45 13.66 296.01 24.79
  Q 305.69 54.98 334.59 141.78
  C 339.06 155.19 342.49 166.63 346.43 177.26
  Q 347.82 181.03 353.69 198.94
  Q 357.68 211.12 361.43 220.49
  A 1.38 1.37 60.6 0 0 363.53 221.08
  Z"
/>
<path fill="#193269" d="
  M 240.66 2.59
  A 1.45 1.44 1.7 0 1 242.01 4.02
  Q 242.10 13.92 242.03 136.49
  Q 242.03 140.14 240.24 145.53
  Q 225.38 190.23 224.63 192.43
  Q 202.36 258.13 187.51 303.23
  Q 185.75 308.55 180.02 308.55
  Q 147.75 308.60 115.38 308.56
  C 110.03 308.56 107.66 309.44 105.88 304.33
  Q 75.97 218.59 50.64 145.54
  Q 48.53 139.45 47.72 137.08
  C 42.12 120.58 35.38 102.16 28.69 82.57
  Q 18.60 53.00 2.86 8.22
  Q 2.37 6.82 2.32 4.87
  A 1.15 1.14 74.4 0 1 2.90 3.84
  Q 4.43 2.97 6.00 2.97
  Q 61.05 2.88 71.99 2.99
  C 74.34 3.01 75.30 4.51 76.01 6.68
  Q 84.16 31.54 107.90 102.75
  C 113.69 120.10 120.20 140.89 127.34 162.59
  Q 138.79 197.40 145.37 218.60
  Q 145.89 220.25 146.69 221.37
  A 0.67 0.66 -48.4 0 0 147.81 221.30
  Q 150.54 216.36 152.02 212.48
  Q 158.42 195.68 165.84 173.56
  Q 194.38 88.37 210.42 38.20
  C 214.01 26.96 216.48 17.24 220.35 6.36
  Q 221.70 2.55 225.78 2.42
  Q 233.70 2.16 240.66 2.59
  Z"
/>
</svg>
